<svg width="35.000000" height="35.000000" viewBox="0 0 35 35" fill="none" xmlns="http://www.w3.org/2000/svg" xmlns:xlink="http://www.w3.org/1999/xlink">
	<desc>
			Created with Pixso.
	</desc>
	<defs/>
	<circle id="Ellipse 11" cx="17.500000" cy="17.500000" r="17.500000" fill="#5B5B5B" fill-opacity="1.000000"/>
	<circle id="Ellipse 11" cx="17.500000" cy="17.500000" r="17.000000" stroke="#16A59C" stroke-opacity="1.000000" stroke-width="1.000000"/>
	<path id="Vector" d="M17.5 3C14.06 3 11.25 6.5 11.25 10.81C11.25 15.12 14.06 18.62 17.5 18.62C20.93 18.62 23.75 15.12 23.75 10.81C23.75 6.5 20.93 3 17.5 3ZM10.96 18.62C7.65 18.78 5 21.5 5 24.87L5 28L30 28L30 24.87C30 21.5 27.37 18.78 24.03 18.62C22.34 20.53 20.03 21.75 17.5 21.75C14.96 21.75 12.65 20.53 10.96 18.62Z" fill="#FFFFFF" fill-opacity="1.000000" fill-rule="nonzero"/>
</svg>
