<svg width="85.000000" height="85.000000" viewBox="0 0 85 85" fill="none" xmlns="http://www.w3.org/2000/svg" xmlns:xlink="http://www.w3.org/1999/xlink">
	<desc>
			Created with Pixso.
	</desc>
	<defs>
		<filter id="filter_26_43_dd" x="0.000000" y="0.000000" width="85.000000" height="85.000000" filterUnits="userSpaceOnUse" color-interpolation-filters="sRGB">
			<feFlood flood-opacity="0" result="BackgroundImageFix"/>
			<feBlend mode="normal" in="SourceGraphic" in2="BackgroundImageFix" result="shape"/>
			<feGaussianBlur stdDeviation="3.33333" result="effect_layerBlur_1"/>
		</filter>
	</defs>
	<g filter="url(#filter_26_43_dd)">
		<circle id="Ellipse 6" cx="42.500000" cy="42.500000" r="32.500000" fill="#CFCFCF" fill-opacity="1.000000"/>
	</g>
	<circle id="Ellipse 4" cx="42.000000" cy="42.000000" r="30.000000" fill="#5B5B5B" fill-opacity="1.000000"/>
	<circle id="Ellipse 4" cx="42.000000" cy="42.000000" r="29.000000" stroke="#CFCFCF" stroke-opacity="1.000000" stroke-width="2.000000"/>
	<path id="Vector" d="M41.57 22.28C36.26 22.28 31.92 27.25 31.92 33.37C31.92 39.49 36.26 44.46 41.57 44.46C46.87 44.46 51.21 39.49 51.21 33.37C51.21 27.25 46.87 22.28 41.57 22.28ZM31.49 44.46C26.38 44.68 22.28 48.54 22.28 53.33L22.28 57.77L60.85 57.77L60.85 53.33C60.85 48.54 56.8 44.68 51.64 44.46C49.04 47.17 45.47 48.9 41.57 48.9C37.66 48.9 34.09 47.17 31.49 44.46Z" fill="#FFFFFF" fill-opacity="1.000000" fill-rule="nonzero"/>
</svg>
