<svg width="95.000000" height="95.000000" viewBox="0 0 95 95" fill="none" xmlns="http://www.w3.org/2000/svg" xmlns:xlink="http://www.w3.org/1999/xlink">
	<desc>
			Created with Pixso.
	</desc>
	<defs>
		<filter id="filter_26_42_dd" x="0.000000" y="0.000000" width="95.000000" height="95.000000" filterUnits="userSpaceOnUse" color-interpolation-filters="sRGB">
			<feFlood flood-opacity="0" result="BackgroundImageFix"/>
			<feBlend mode="normal" in="SourceGraphic" in2="BackgroundImageFix" result="shape"/>
			<feGaussianBlur stdDeviation="3.33333" result="effect_layerBlur_1"/>
		</filter>
	</defs>
	<g filter="url(#filter_26_42_dd)">
		<circle id="Ellipse 5" cx="47.500000" cy="47.500000" r="37.500000" fill="#FFF500" fill-opacity="1.000000"/>
	</g>
	<circle id="Ellipse 4" cx="47.000000" cy="47.000000" r="35.000000" fill="#5B5B5B" fill-opacity="1.000000"/>
	<circle id="Ellipse 4" cx="47.000000" cy="47.000000" r="34.000000" stroke="#EBFF00" stroke-opacity="1.000000" stroke-width="2.000000"/>
	<path id="Vector" d="M46.5 24C40.31 24 35.25 29.79 35.25 36.93C35.25 44.07 40.31 49.87 46.5 49.87C52.68 49.87 57.75 44.07 57.75 36.93C57.75 29.79 52.68 24 46.5 24ZM34.74 49.87C28.78 50.13 24 54.63 24 60.22L24 65.4L69 65.4L69 60.22C69 54.63 64.27 50.13 58.25 49.87C55.21 53.03 51.05 55.05 46.5 55.05C41.94 55.05 37.78 53.03 34.74 49.87Z" fill="#FFFFFF" fill-opacity="1.000000" fill-rule="nonzero"/>
</svg>
