<svg width="48.000000" height="48.000000" viewBox="0 0 48 48" fill="none" xmlns="http://www.w3.org/2000/svg" xmlns:xlink="http://www.w3.org/1999/xlink">
	<desc>
			Created with Pixso.
	</desc>
	<defs>
		<clipPath id="clip5_47">
			<rect id="insta" width="48.000000" height="48.000000" fill="white" fill-opacity="0"/>
		</clipPath>
	</defs>
	<rect id="Rectangle 235" x="10.146606" y="8.443359" width="27.000000" height="31.000000" fill="#FFFFFF" fill-opacity="1.000000"/>
	<g clip-path="url(#clip5_47)">
		<path id="path" d="M0 24C0 10.74 10.74 0 24 0C37.25 0 48 10.74 48 24C48 37.25 37.25 48 24 48C10.74 48 0 37.25 0 24ZM24 11.2C20.52 11.2 20.08 11.21 18.72 11.27C17.36 11.33 16.43 11.55 15.61 11.87C14.77 12.19 14.06 12.63 13.34 13.34C12.63 14.05 12.19 14.77 11.87 15.61C11.55 16.42 11.33 17.35 11.27 18.72C11.21 20.08 11.2 20.52 11.2 24C11.2 27.47 11.21 27.91 11.27 29.27C11.34 30.63 11.55 31.56 11.87 32.38C12.19 33.22 12.63 33.93 13.34 34.65C14.05 35.36 14.77 35.8 15.61 36.12C16.42 36.44 17.35 36.66 18.72 36.72C20.08 36.78 20.52 36.8 23.99 36.8C27.47 36.8 27.91 36.78 29.27 36.72C30.63 36.66 31.57 36.44 32.38 36.12C33.22 35.8 33.93 35.36 34.65 34.65C35.36 33.93 35.8 33.22 36.12 32.38C36.44 31.56 36.65 30.63 36.72 29.27C36.78 27.91 36.8 27.47 36.8 24C36.8 20.52 36.78 20.08 36.72 18.72C36.65 17.35 36.44 16.42 36.12 15.61C35.8 14.77 35.36 14.05 34.65 13.34C33.93 12.63 33.22 12.19 32.38 11.87C31.56 11.55 30.63 11.33 29.27 11.27C27.9 11.21 27.47 11.2 24 11.2Z" fill="#000000" fill-opacity="1.000000" fill-rule="evenodd"/>
		<path id="path" d="M22.85 13.5C23.19 13.5 23.57 13.5 24 13.5C27.41 13.5 27.82 13.51 29.17 13.58C30.42 13.63 31.09 13.84 31.55 14.02C32.14 14.25 32.57 14.53 33.02 14.97C33.46 15.42 33.74 15.85 33.97 16.45C34.15 16.9 34.36 17.57 34.41 18.82C34.48 20.17 34.49 20.58 34.49 23.99C34.49 27.41 34.48 27.81 34.41 29.16C34.36 30.41 34.15 31.09 33.97 31.54C33.74 32.14 33.46 32.56 33.02 33.01C32.57 33.46 32.14 33.73 31.55 33.97C31.09 34.14 30.42 34.35 29.17 34.41C27.82 34.47 27.41 34.48 24 34.48C20.58 34.48 20.17 34.47 18.82 34.41C17.58 34.35 16.9 34.14 16.45 33.97C15.85 33.73 15.42 33.46 14.98 33.01C14.53 32.56 14.25 32.14 14.02 31.54C13.84 31.09 13.63 30.41 13.58 29.16C13.52 27.81 13.5 27.41 13.5 23.99C13.5 20.57 13.52 20.17 13.58 18.82C13.63 17.57 13.84 16.89 14.02 16.44C14.25 15.84 14.53 15.42 14.98 14.97C15.42 14.52 15.85 14.24 16.45 14.01C16.9 13.84 17.58 13.63 18.82 13.57C20 13.52 20.46 13.5 22.85 13.5ZM30.83 15.63C29.98 15.63 29.29 16.31 29.29 17.16C29.29 18.01 29.98 18.7 30.83 18.7C31.68 18.7 32.36 18.01 32.36 17.16C32.36 16.31 31.68 15.63 30.83 15.63ZM24 17.42C20.37 17.42 17.42 20.37 17.42 24C17.42 27.63 20.37 30.57 24 30.57C27.63 30.57 30.57 27.63 30.57 24C30.57 20.37 27.63 17.42 24 17.42Z" fill="#000000" fill-opacity="1.000000" fill-rule="evenodd"/>
		<path id="path" d="M24 19.73C26.35 19.73 28.26 21.64 28.26 24C28.26 26.35 26.35 28.26 24 28.26C21.64 28.26 19.73 26.35 19.73 24C19.73 21.64 21.64 19.73 24 19.73Z" fill="#000000" fill-opacity="1.000000" fill-rule="evenodd"/>
	</g>
</svg>
