<svg width="48.000000" height="48.000000" viewBox="0 0 48 48" fill="none" xmlns="http://www.w3.org/2000/svg" xmlns:xlink="http://www.w3.org/1999/xlink">
	<desc>
			Created with Pixso.
	</desc>
	<defs>
		<clipPath id="clip5_42">
			<rect id="tg" width="48.000000" height="48.000000" fill="white" fill-opacity="0"/>
		</clipPath>
	</defs>
	<rect id="Rectangle 237" x="8.117706" y="14.208008" width="30.000000" height="23.000000" fill="#FFFFFF" fill-opacity="1.000000"/>
	<g clip-path="url(#clip5_42)">
		<path id="path" d="M48 24C48 37.25 37.25 48 24 48C10.74 48 0 37.25 0 24C0 10.74 10.74 0 24 0C37.25 0 48 10.74 48 24ZM16.07 21.8C13.66 22.85 11.19 23.92 8.93 25.17C7.75 26.03 9.32 26.64 10.79 27.22C11.03 27.31 11.26 27.4 11.47 27.49C11.66 27.54 11.84 27.6 12.03 27.66C13.66 28.18 15.49 28.76 17.07 27.89C19.68 26.39 22.14 24.66 24.6 22.93C25.41 22.36 26.22 21.79 27.03 21.23C27.06 21.21 27.11 21.18 27.15 21.15C27.84 20.7 29.4 19.7 28.82 21.09C27.46 22.57 26.01 23.89 24.55 25.21C23.56 26.1 22.57 26.99 21.6 27.95C20.76 28.63 19.89 30 20.83 30.96C23 32.48 25.21 33.96 27.41 35.44C28.12 35.93 28.84 36.41 29.56 36.89C30.77 37.86 32.66 37.08 32.93 35.56C33.05 34.87 33.17 34.17 33.29 33.48C33.94 29.63 34.6 25.79 35.18 21.93C35.26 21.32 35.35 20.72 35.44 20.11C35.66 18.65 35.88 17.18 35.94 15.7C35.77 14.23 33.98 14.55 32.99 14.88C27.89 16.83 22.83 18.91 17.8 21.04C17.23 21.29 16.65 21.54 16.07 21.8Z" fill="#000000" fill-opacity="1.000000" fill-rule="evenodd"/>
	</g>
</svg>
