<svg width="48.000000" height="48.000000" viewBox="0 0 48 48" fill="none" xmlns="http://www.w3.org/2000/svg" xmlns:xlink="http://www.w3.org/1999/xlink">
	<desc>
			Created with Pixso.
	</desc>
	<defs>
		<clipPath id="clip5_44">
			<rect id="youtube" width="48.000000" height="48.000000" fill="white" fill-opacity="0"/>
		</clipPath>
	</defs>
	<rect id="Rectangle 236" x="8.705353" y="14.683411" width="32.000000" height="20.000000" fill="#FFFFFF" fill-opacity="1.000000"/>
	<g clip-path="url(#clip5_44)">
		<path id="path" d="M0 24C0 10.74 10.74 0 24 0C37.25 0 48 10.74 48 24C48 37.25 37.25 48 24 48C10.74 48 0 37.25 0 24ZM36.26 18.07C35.97 16.94 35.1 16.05 34 15.74C32 15.2 24 15.2 24 15.2C24 15.2 15.99 15.2 13.99 15.74C12.89 16.05 12.02 16.94 11.73 18.07C11.2 20.12 11.2 24.4 11.2 24.4C11.2 24.4 11.2 28.67 11.73 30.72C12.02 31.85 12.89 32.74 13.99 33.05C15.99 33.59 24 33.59 24 33.59C24 33.59 32 33.59 34 33.05C35.1 32.74 35.97 31.85 36.26 30.72C36.8 28.67 36.8 24.4 36.8 24.4C36.8 24.4 36.8 20.12 36.26 18.07Z" fill="#000000" fill-opacity="1.000000" fill-rule="evenodd"/>
		<path id="path" d="M21.6 28.8L21.6 20.8L28 24.8L21.6 28.8Z" fill="#000000" fill-opacity="1.000000" fill-rule="evenodd"/>
	</g>
</svg>
