<svg width="24" height="21" viewBox="0 0 24 21" fill="none" xmlns="http://www.w3.org/2000/svg">
<path d="M9.4999 0C12.5587 0 15.0383 2.47961 15.0383 5.53838C15.0383 8.59715 12.5587 11.0768 9.4999 11.0768C6.44113 11.0768 3.96151 8.59712 3.96151 5.53836C3.96508 2.48105 6.44258 0.00356762 9.49954 0H9.4999ZM9.4999 8.98682C11.4044 8.98682 12.9483 7.44288 12.9483 5.53838C12.9483 3.63388 11.4044 2.08999 9.49987 2.08999C7.59535 2.08999 6.05144 3.63388 6.05144 5.53838C6.05144 7.44293 7.59537 8.98684 9.49987 8.98684L9.4999 8.98682ZM16.9297 20.2078L16.1982 16.5848C15.5698 13.4055 12.8036 11.0412 9.48527 11.0412C6.16691 11.0412 3.40079 13.4055 2.77951 16.5414L2.77232 16.5848L2.05129 20.2026L0 19.7961L0.721035 16.1805C1.56241 12.0392 5.16976 8.96468 9.4968 8.95553H9.50407C13.8219 8.97306 17.4167 12.0472 18.2378 16.1253L18.2474 16.1826L18.9789 19.7941L16.9297 20.2078ZM14.4949 11.0726C13.346 11.0726 12.2792 10.7211 11.3962 10.1198L11.4154 10.1321L12.5805 8.39748C13.12 8.764 13.7856 8.98266 14.5023 8.98266C16.4069 8.98266 17.9508 7.43873 17.9508 5.53423C17.9508 3.62973 16.4069 2.08579 14.5024 2.08579C13.7856 2.08579 13.12 2.30445 12.5685 2.67867L12.5805 2.67097L11.4154 0.940491C12.2819 0.351434 13.3514 0 14.5029 0C17.5617 0 20.0413 2.47964 20.0413 5.5384C20.0413 8.59717 17.5617 11.0768 14.5029 11.0768H14.4944H14.4949L14.4949 11.0726ZM21.9456 20.2079L21.2141 16.5818C20.5701 13.4165 17.8094 11.0681 14.5002 11.0681C13.7244 11.0681 12.9788 11.1971 12.2836 11.435L12.3318 11.4206L11.6693 9.43521C12.5153 9.14238 13.4903 8.9733 14.5048 8.9733C18.8239 8.9733 22.4273 12.038 23.2587 16.1115L23.2685 16.169L24 19.792L21.9456 20.2079Z" fill="#0A559B"/>
</svg>
