<svg width="24" height="20" viewBox="0 0 24 20" fill="none" xmlns="http://www.w3.org/2000/svg">
<path d="M11.6818 5.07322L4.00032 11.7023V18.8571C4.00032 19.0423 4.07055 19.22 4.19556 19.351C4.32058 19.482 4.49013 19.5556 4.66693 19.5556L9.33574 19.5429C9.51196 19.542 9.68066 19.468 9.80495 19.3371C9.92925 19.2062 9.99902 19.0291 9.99902 18.8444V14.6661C9.99902 14.4809 10.0693 14.3032 10.1943 14.1722C10.3193 14.0412 10.4888 13.9676 10.6656 13.9676H13.3321C13.5089 13.9676 13.6785 14.0412 13.8035 14.1722C13.9285 14.3032 13.9987 14.4809 13.9987 14.6661V18.8413C13.9984 18.9333 14.0155 19.0243 14.0489 19.1093C14.0822 19.1943 14.1313 19.2716 14.1932 19.3367C14.2552 19.4018 14.3287 19.4534 14.4097 19.4886C14.4908 19.5239 14.5776 19.542 14.6653 19.542L19.3325 19.5556C19.5093 19.5556 19.6788 19.482 19.8038 19.351C19.9289 19.22 19.9991 19.0423 19.9991 18.8571V11.6975L12.3193 5.07322C12.229 4.99697 12.1165 4.95539 12.0005 4.95539C11.8846 4.95539 11.7721 4.99697 11.6818 5.07322ZM23.8155 9.57893L20.3324 6.57061V0.523868C20.3324 0.38493 20.2797 0.251682 20.186 0.153437C20.0922 0.0551932 19.965 0 19.8324 0H17.4993C17.3667 0 17.2395 0.0551932 17.1457 0.153437C17.052 0.251682 16.9993 0.38493 16.9993 0.523868V3.69371L13.2692 0.47803C12.9112 0.169375 12.462 0.000617005 11.9984 0.000617005C11.5349 0.000617005 11.0857 0.169375 10.7277 0.47803L0.181444 9.57893C0.130818 9.62277 0.0889323 9.67664 0.0581813 9.73745C0.0274303 9.79826 0.00841634 9.86483 0.00222573 9.93334C-0.00396488 10.0019 0.00278923 10.071 0.0221021 10.1368C0.041415 10.2025 0.0729083 10.2637 0.114782 10.3167L1.1772 11.67C1.21896 11.7232 1.27033 11.7673 1.32835 11.7997C1.38638 11.8321 1.44994 11.8521 1.51538 11.8587C1.58082 11.8653 1.64686 11.8584 1.70973 11.8382C1.77259 11.818 1.83104 11.7851 1.88173 11.7412L11.6818 3.28334C11.7721 3.20709 11.8846 3.1655 12.0005 3.1655C12.1165 3.1655 12.229 3.20709 12.3193 3.28334L22.1198 11.7412C22.1704 11.7851 22.2287 11.8181 22.2915 11.8383C22.3543 11.8585 22.4202 11.8656 22.4856 11.8591C22.551 11.8526 22.6145 11.8327 22.6726 11.8005C22.7306 11.7683 22.782 11.7244 22.8239 11.6713L23.8863 10.318C23.9281 10.2647 23.9595 10.2032 23.9786 10.1372C23.9976 10.0711 24.0041 10.0017 23.9975 9.93304C23.9909 9.86436 23.9714 9.79772 23.9402 9.73695C23.909 9.67618 23.8666 9.62247 23.8155 9.57893Z" fill="#0085FF"/>
</svg>
