<svg width="35.000000" height="35.000000" viewBox="0 0 35 35" fill="none" xmlns="http://www.w3.org/2000/svg" xmlns:xlink="http://www.w3.org/1999/xlink">
	<desc>
			Created with Pixso.
	</desc>
	<defs/>
	<circle id="user_avatar" cx="17.500000" cy="17.500000" r="17.500000" fill="#5B5B5B" fill-opacity="1.000000"/>
	<circle id="user_avatar" cx="17.500000" cy="17.500000" r="17.000000" stroke="#FFFFFF" stroke-opacity="1.000000" stroke-width="1.000000"/>
	<path id="Vector" d="M17.5 4C14.06 4 11.25 7.22 11.25 11.18C11.25 15.15 14.06 18.37 17.5 18.37C20.93 18.37 23.75 15.15 23.75 11.18C23.75 7.22 20.93 4 17.5 4ZM10.96 18.37C7.65 18.51 5 21.02 5 24.12L5 27L30 27L30 24.12C30 21.02 27.37 18.51 24.03 18.37C22.34 20.12 20.03 21.25 17.5 21.25C14.96 21.25 12.65 20.12 10.96 18.37Z" fill="#FFFFFF" fill-opacity="1.000000" fill-rule="nonzero"/>
</svg>
